<?xml version="1.0" standalone="no"?>
<!DOCTYPE svg PUBLIC "-//W3C//DTD SVG 20010904//EN"
 "http://www.w3.org/TR/2001/REC-SVG-20010904/DTD/svg10.dtd">
<svg version="1.0" xmlns="http://www.w3.org/2000/svg"
 width="790.000000pt" height="790.000000pt" viewBox="0 0 790.000000 790.000000"
 preserveAspectRatio="xMidYMid meet">
<metadata>
Created by potrace 1.11, written by Peter Selinger 2001-2013
</metadata>
<g transform="translate(0.000000,790.000000) scale(0.100000,-0.100000)"
fill="#000000" stroke="none">
<path d="M3738 7395 c-2 -1 -43 -5 -93 -9 -49 -3 -99 -8 -111 -10 -11 -2 -41
-5 -65 -7 -24 -1 -48 -5 -54 -8 -5 -2 -21 -6 -35 -7 -89 -10 -308 -57 -455
-99 -33 -9 -67 -18 -75 -20 -8 -2 -46 -15 -85 -30 -38 -14 -77 -28 -85 -30
-27 -7 -164 -62 -225 -91 -33 -15 -62 -28 -65 -29 -10 -1 -235 -118 -250 -129
-8 -6 -33 -20 -55 -31 -22 -11 -44 -24 -50 -28 -5 -4 -59 -40 -120 -79 -60
-39 -111 -75 -113 -80 -2 -4 -8 -8 -13 -8 -5 0 -17 -6 -26 -14 -10 -8 -54 -43
-99 -78 -157 -123 -348 -303 -484 -457 -36 -41 -69 -79 -75 -85 -5 -6 -24 -29
-41 -51 -92 -120 -133 -176 -169 -230 -22 -33 -42 -62 -45 -65 -11 -9 -140
-231 -140 -239 0 -5 -7 -14 -15 -21 -9 -7 -14 -15 -11 -17 2 -2 -14 -36 -35
-75 -21 -39 -39 -72 -39 -74 0 -2 -11 -28 -25 -58 -14 -30 -25 -60 -25 -65 0
-6 -4 -11 -10 -11 -5 0 -10 -7 -10 -15 0 -8 -8 -34 -19 -58 -10 -23 -28 -67
-39 -97 -11 -30 -23 -64 -28 -75 -4 -11 -6 -24 -5 -29 1 -4 -3 -13 -8 -20 -9
-11 -75 -237 -87 -296 -3 -14 -9 -41 -14 -60 -5 -19 -11 -48 -14 -65 -8 -45
-25 -137 -30 -162 -3 -12 -7 -48 -11 -80 -3 -32 -8 -71 -10 -88 -14 -91 -18
-186 -18 -420 0 -263 1 -289 29 -495 23 -167 24 -173 30 -193 3 -10 7 -30 9
-45 2 -16 13 -66 25 -113 12 -46 23 -93 26 -104 13 -63 109 -353 130 -393 7
-15 14 -33 14 -40 0 -7 4 -20 9 -30 6 -9 26 -53 46 -97 68 -148 139 -285 192
-370 7 -11 20 -35 29 -52 9 -18 20 -33 25 -33 5 0 9 -5 9 -11 0 -22 210 -311
305 -419 190 -217 416 -430 589 -555 16 -11 47 -34 70 -51 64 -48 197 -134
206 -134 5 0 10 -4 12 -8 2 -4 23 -19 48 -33 25 -14 63 -36 85 -49 223 -128
541 -259 815 -335 3 -1 25 -7 50 -14 25 -7 54 -15 65 -17 11 -2 40 -8 65 -14
25 -6 59 -13 75 -16 41 -7 61 -11 128 -24 33 -6 65 -9 73 -6 8 3 14 2 14 -2 0
-4 15 -9 33 -11 17 -1 48 -4 67 -6 207 -26 661 -26 835 -1 17 2 57 7 90 10 33
4 67 9 75 11 8 2 32 6 54 10 21 3 41 7 45 10 4 2 25 6 48 9 22 2 60 10 84 16
38 11 64 16 104 24 6 1 16 5 23 9 6 5 12 6 12 3 0 -3 12 -1 28 5 15 6 34 12
42 14 36 7 106 28 115 33 6 4 13 7 18 8 4 1 9 3 12 4 3 1 8 3 13 4 45 10 334
123 342 134 3 4 14 9 25 10 11 2 22 8 23 13 2 5 10 9 17 9 16 0 133 59 141 71
3 5 14 9 25 9 10 0 19 5 19 10 0 6 5 10 11 10 17 0 380 228 399 250 3 4 32 26
64 50 76 55 91 68 207 170 95 84 259 249 329 330 30 35 63 72 73 82 9 10 17
22 17 27 0 5 3 11 8 13 4 2 23 23 42 48 19 25 40 51 47 58 7 8 18 23 24 34 10
18 64 94 89 125 6 7 10 17 10 23 0 5 3 10 8 10 4 0 12 10 18 23 6 12 41 72 78
132 36 61 66 116 66 123 0 6 4 12 9 12 5 0 15 17 22 38 6 20 15 39 18 42 11 9
80 159 124 270 30 76 74 193 75 200 0 3 3 12 6 20 43 127 108 379 101 391 -3
4 -1 10 4 13 5 3 12 29 16 58 4 29 8 60 10 68 12 54 38 257 39 307 1 18 5 35
8 38 4 4 3 18 -2 31 -5 13 -5 26 -1 29 15 9 3 599 -14 655 -2 8 -7 42 -11 75
-3 33 -8 69 -10 80 -3 11 -7 36 -10 55 -4 29 -26 133 -49 235 -4 19 -22 88
-29 110 -1 6 -8 30 -15 55 -7 25 -28 90 -47 145 -19 55 -37 109 -39 119 -3 11
-9 24 -15 30 -5 5 -10 16 -10 23 0 50 -280 598 -312 611 -4 2 -8 8 -8 14 0 8
-71 117 -112 173 -17 22 -140 181 -156 201 -93 115 -309 337 -412 423 -36 30
-69 60 -75 66 -16 17 -135 108 -210 160 -38 27 -72 52 -75 55 -8 9 -231 146
-280 171 -25 13 -47 26 -50 29 -6 6 -148 76 -230 113 -230 105 -596 223 -784
252 -21 4 -47 9 -57 11 -11 2 -27 6 -36 8 -48 11 -236 36 -313 42 -64 5 -538
13 -542 9z"/>
</g>
</svg>
